<svg width="1238" height="63" viewBox="0 0 1238 63" fill="none" xmlns="http://www.w3.org/2000/svg">
<path d="M284.365 40.2317C306.969 36.8377 327.504 33.546 348.581 30.6055C395.215 24.0953 442.835 18.4337 495.921 19.9991C511.335 20.4526 527.044 21.4181 541.571 22.9981C580.081 27.1675 615.045 24.0661 649.565 19.1798C695.806 12.6258 743.722 9.24634 794.789 12.816C842.261 16.1369 886.286 12.8306 930.113 7.6371C953.948 4.8136 978.669 2.56066 1003.54 0.673449C1038.9 -2.00376 1065.54 3.80415 1093.02 9.24634C1102.91 11.2067 1118.18 12.4063 1129.56 11.748C1165.01 9.7145 1199.78 6.64228 1237.5 3.76026C1203.18 16.3124 1162.16 23.5979 1108.82 22.1642C1093.26 21.74 1076.76 18.7848 1064.11 15.7272C1044.71 11.0458 1024.71 10.0071 1002.06 12.1284C970.79 15.0689 939.421 17.9363 908.741 21.3596C870.675 25.6022 832.461 25.5144 793.459 23.1298C749.286 20.4233 707.379 22.6763 667.392 28.6012C625.238 34.8481 582.937 38.008 535.613 32.7999C492.228 28.0307 448.203 28.8792 406.049 35.2723C370.741 40.6267 334.94 45.6593 299.533 50.9552C286.778 52.857 273.581 54.8759 260.629 51.9939C248.515 49.2874 243.492 45.4545 246.348 40.5974C251.273 32.3317 245.462 31.1029 218.131 32.7414C169.625 35.6673 129.49 43.5965 88.8138 51.277C71.5288 54.5394 54.7856 58.0651 37.0082 61.0642C30.8033 62.1175 21.6438 62.571 14.848 62.0882C9.08633 61.6786 1.55179 59.6744 0.616135 58.0798C-0.319518 56.5144 4.55576 53.7787 9.57874 52.9155C55.1795 45.0156 100.977 37.2181 147.514 29.8448C165.931 26.9189 185.876 24.3879 206.164 23.042C257.675 19.6333 278.21 24.2709 284.267 40.261L284.365 40.2317Z" fill="#9581B4"/>
</svg>
